<svg xmlns="http://www.w3.org/2000/svg" viewBox="0 0 300.000000 285.000000" preserveAspectRatio="xMidYMid meet">
<g transform="translate(0.000000,285.000000) scale(0.100000,-0.100000)" fill="#0A0A0A" stroke="none">
<path stroke-width="20" class="node" id="node1" d="M1245 2402 c-120 -246 -222 -451 -226 -456 -5 -6 -880 -140 -1016
-156 -2 0 -3 -15 -3 -33 0 -30 17 -51 167 -198 93 -90 254 -249 360 -354 l192
-190 -84 -485 c-47 -267 -84 -495 -85 -507 0 -20 5 -23 43 -23 36 0 106 33
471 225 235 124 432 225 436 225 4 0 201 -101 436 -225 365 -192 435 -225 471
-225 38 0 43 3 43 23 -1 12 -38 240 -85 507 l-84 485 192 190 c106 105 267
264 360 354 150 147 167 168 167 198 0 18 -1 33 -2 33 -137 16 -1012 150
-1017 156 -4 5 -106 210 -226 456 l-220 447 -35 0 -35 0 -220 -447z m470 -98
c144 -294 216 -429 230 -435 11 -5 227 -38 480 -75 253 -36 461 -67 463 -68 1
-2 -150 -150 -335 -331 -186 -180 -342 -335 -346 -344 -5 -10 23 -200 72 -481
44 -255 78 -467 75 -470 -3 -2 -22 5 -42 16 -20 12 -211 112 -424 224 l-388
202 -387 -202 c-214 -112 -405 -212 -425 -224 -20 -11 -39 -18 -42 -16 -3 3
31 215 75 470 49 281 77 471 72 481 -4 9 -160 164 -346 344 -185 181 -336 329
-335 331 2 1 210 32 463 68 253 37 469 70 480 75 14 6 86 141 230 435 116 234
212 426 215 426 3 0 99 -192 215 -426z" style="position: relative;"></path>
</g>
<g transform="translate(0.000000,285.000000) scale(0.100000,-0.100000)" fill="#A1A1A1" stroke="none">
</g>
</svg>
