<?xml version="1.0" encoding="utf-8"?>
<!-- Svg Vector Icons : http://www.onlinewebfonts.com/icon -->
<!DOCTYPE svg PUBLIC "-//W3C//DTD SVG 1.1//EN" "http://www.w3.org/Graphics/SVG/1.1/DTD/svg11.dtd">
<svg version="1.1" xmlns="http://www.w3.org/2000/svg" xmlns:xlink="http://www.w3.org/1999/xlink" x="0px" y="0px" viewBox="0 0 1000 1000" enable-background="new 0 0 1000 1000" xml:space="preserve">
<metadata> Svg Vector Icons : http://www.onlinewebfonts.com/icon </metadata>
<g><path d="M776.1,960.2c-8.2,0-16.3-2.3-23.5-6.8L500,792.2L247.4,953.3c-15.1,9.6-34.6,9.1-49.1-1.5c-14.5-10.5-20.8-28.7-15.9-45.7l79.1-276L25.3,433.8c-13.4-11.1-18.6-29.2-13.2-45.6c5.4-16.4,20.4-27.9,38-29.2L333.3,339L460.7,64.6c7-15.1,22.4-24.8,39.3-24.8c16.9,0,32.3,9.7,39.3,24.8L666.7,339l283.2,20.1c17.5,1.2,32.5,12.8,37.9,29.2c5.4,16.4,0.2,34.4-13.2,45.6L738.6,630.2l79.1,276c4.9,17-1.5,35.2-15.9,45.7C794.1,957.4,785.1,960.2,776.1,960.2z M500,699.2c8.2,0,16.4,2.3,23.5,6.9l180,114.8L647.9,627c-4.6-16,0.7-33.2,13.7-43.9l176.5-146.8L635,421.9c-15.8-1.1-29.6-10.6-36.2-24.7L500,184.4l-98.8,212.7c-6.5,14.1-20.4,23.6-36.2,24.7l-203.1,14.4l176.5,146.8c12.9,10.8,18.3,27.9,13.7,43.9l-55.6,193.9l180-114.8C483.7,701.5,491.8,699.2,500,699.2z"/></g>
</svg>